<?xml version="1.0" encoding="utf-8" standalone="no"?>
<!DOCTYPE svg PUBLIC "-//W3C//DTD SVG 1.1//EN"
  "http://www.w3.org/Graphics/SVG/1.1/DTD/svg11.dtd">
<svg xmlns:xlink="http://www.w3.org/1999/xlink" width="408.631199pt" height="310.86825pt" viewBox="0 0 408.631199 310.86825" xmlns="http://www.w3.org/2000/svg" version="1.1">
 <metadata>
  <rdf:RDF xmlns:dc="http://purl.org/dc/elements/1.1/" xmlns:cc="http://creativecommons.org/ns#" xmlns:rdf="http://www.w3.org/1999/02/22-rdf-syntax-ns#">
   <cc:Work>
    <dc:type rdf:resource="http://purl.org/dc/dcmitype/StillImage"/>
    <dc:date>2023-07-07T19:42:28.554945</dc:date>
    <dc:format>image/svg+xml</dc:format>
    <dc:creator>
     <cc:Agent>
      <dc:title>Matplotlib v3.7.1, https://matplotlib.org/</dc:title>
     </cc:Agent>
    </dc:creator>
   </cc:Work>
  </rdf:RDF>
 </metadata>
 <defs>
  <style type="text/css">*{stroke-linejoin: round; stroke-linecap: butt}</style>
 </defs>
 <g id="figure_1">
  <g id="patch_1">
   <path d="M 0 310.86825 
L 408.631199 310.86825 
L 408.631199 0 
L 0 0 
z
" style="fill: #ffffff"/>
  </g>
  <g id="axes_1">
   <g id="patch_2">
    <path d="M 43.803125 273.312 
L 400.923125 273.312 
L 400.923125 7.2 
L 43.803125 7.2 
z
" style="fill: #ffffff"/>
   </g>
   <g id="matplotlib.axis_1">
    <g id="xtick_1">
     <g id="line2d_1">
      <path d="M 43.803125 273.312 
L 43.803125 7.2 
" clip-path="url(#p64cea90ea5)" style="fill: none; stroke: #b0b0b0; stroke-width: 0.8; stroke-linecap: square"/>
     </g>
     <g id="line2d_2">
      <defs>
       <path id="mfcce52a8e6" d="M 0 0 
L 0 3.5 
" style="stroke: #000000; stroke-width: 0.8"/>
      </defs>
      <g>
       <use xlink:href="#mfcce52a8e6" x="43.803125" y="273.312" style="stroke: #000000; stroke-width: 0.8"/>
      </g>
     </g>
     <g id="text_1">
      <!-- 0 -->
      <g transform="translate(40.621875 287.910437) scale(0.1 -0.1)">
       <defs>
        <path id="DejaVuSans-30" d="M 2034 4250 
Q 1547 4250 1301 3770 
Q 1056 3291 1056 2328 
Q 1056 1369 1301 889 
Q 1547 409 2034 409 
Q 2525 409 2770 889 
Q 3016 1369 3016 2328 
Q 3016 3291 2770 3770 
Q 2525 4250 2034 4250 
z
M 2034 4750 
Q 2819 4750 3233 4129 
Q 3647 3509 3647 2328 
Q 3647 1150 3233 529 
Q 2819 -91 2034 -91 
Q 1250 -91 836 529 
Q 422 1150 422 2328 
Q 422 3509 836 4129 
Q 1250 4750 2034 4750 
z
" transform="scale(0.015625)"/>
       </defs>
       <use xlink:href="#DejaVuSans-30"/>
      </g>
     </g>
    </g>
    <g id="xtick_2">
     <g id="line2d_3">
      <path d="M 55.511977 273.312 
L 55.511977 7.2 
" clip-path="url(#p64cea90ea5)" style="fill: none; stroke: #b0b0b0; stroke-width: 0.8; stroke-linecap: square"/>
     </g>
     <g id="line2d_4">
      <g>
       <use xlink:href="#mfcce52a8e6" x="55.511977" y="273.312" style="stroke: #000000; stroke-width: 0.8"/>
      </g>
     </g>
     <g id="text_2">
      <!-- 1 -->
      <g transform="translate(52.330727 287.910437) scale(0.1 -0.1)">
       <defs>
        <path id="DejaVuSans-31" d="M 794 531 
L 1825 531 
L 1825 4091 
L 703 3866 
L 703 4441 
L 1819 4666 
L 2450 4666 
L 2450 531 
L 3481 531 
L 3481 0 
L 794 0 
L 794 531 
z
" transform="scale(0.015625)"/>
       </defs>
       <use xlink:href="#DejaVuSans-31"/>
      </g>
     </g>
    </g>
    <g id="xtick_3">
     <g id="line2d_5">
      <path d="M 102.347387 273.312 
L 102.347387 7.2 
" clip-path="url(#p64cea90ea5)" style="fill: none; stroke: #b0b0b0; stroke-width: 0.8; stroke-linecap: square"/>
     </g>
     <g id="line2d_6">
      <g>
       <use xlink:href="#mfcce52a8e6" x="102.347387" y="273.312" style="stroke: #000000; stroke-width: 0.8"/>
      </g>
     </g>
     <g id="text_3">
      <!-- 5 -->
      <g transform="translate(99.166137 287.910437) scale(0.1 -0.1)">
       <defs>
        <path id="DejaVuSans-35" d="M 691 4666 
L 3169 4666 
L 3169 4134 
L 1269 4134 
L 1269 2991 
Q 1406 3038 1543 3061 
Q 1681 3084 1819 3084 
Q 2600 3084 3056 2656 
Q 3513 2228 3513 1497 
Q 3513 744 3044 326 
Q 2575 -91 1722 -91 
Q 1428 -91 1123 -41 
Q 819 9 494 109 
L 494 744 
Q 775 591 1075 516 
Q 1375 441 1709 441 
Q 2250 441 2565 725 
Q 2881 1009 2881 1497 
Q 2881 1984 2565 2268 
Q 2250 2553 1709 2553 
Q 1456 2553 1204 2497 
Q 953 2441 691 2322 
L 691 4666 
z
" transform="scale(0.015625)"/>
       </defs>
       <use xlink:href="#DejaVuSans-35"/>
      </g>
     </g>
    </g>
    <g id="xtick_4">
     <g id="line2d_7">
      <path d="M 160.89165 273.312 
L 160.89165 7.2 
" clip-path="url(#p64cea90ea5)" style="fill: none; stroke: #b0b0b0; stroke-width: 0.8; stroke-linecap: square"/>
     </g>
     <g id="line2d_8">
      <g>
       <use xlink:href="#mfcce52a8e6" x="160.89165" y="273.312" style="stroke: #000000; stroke-width: 0.8"/>
      </g>
     </g>
     <g id="text_4">
      <!-- 10 -->
      <g transform="translate(154.52915 287.910437) scale(0.1 -0.1)">
       <use xlink:href="#DejaVuSans-31"/>
       <use xlink:href="#DejaVuSans-30" x="63.623047"/>
      </g>
     </g>
    </g>
    <g id="xtick_5">
     <g id="line2d_9">
      <path d="M 395.068699 273.312 
L 395.068699 7.2 
" clip-path="url(#p64cea90ea5)" style="fill: none; stroke: #b0b0b0; stroke-width: 0.8; stroke-linecap: square"/>
     </g>
     <g id="line2d_10">
      <g>
       <use xlink:href="#mfcce52a8e6" x="395.068699" y="273.312" style="stroke: #000000; stroke-width: 0.8"/>
      </g>
     </g>
     <g id="text_5">
      <!-- 30 -->
      <g transform="translate(388.706199 287.910437) scale(0.1 -0.1)">
       <defs>
        <path id="DejaVuSans-33" d="M 2597 2516 
Q 3050 2419 3304 2112 
Q 3559 1806 3559 1356 
Q 3559 666 3084 287 
Q 2609 -91 1734 -91 
Q 1441 -91 1130 -33 
Q 819 25 488 141 
L 488 750 
Q 750 597 1062 519 
Q 1375 441 1716 441 
Q 2309 441 2620 675 
Q 2931 909 2931 1356 
Q 2931 1769 2642 2001 
Q 2353 2234 1838 2234 
L 1294 2234 
L 1294 2753 
L 1863 2753 
Q 2328 2753 2575 2939 
Q 2822 3125 2822 3475 
Q 2822 3834 2567 4026 
Q 2313 4219 1838 4219 
Q 1578 4219 1281 4162 
Q 984 4106 628 3988 
L 628 4550 
Q 988 4650 1302 4700 
Q 1616 4750 1894 4750 
Q 2613 4750 3031 4423 
Q 3450 4097 3450 3541 
Q 3450 3153 3228 2886 
Q 3006 2619 2597 2516 
z
" transform="scale(0.015625)"/>
       </defs>
       <use xlink:href="#DejaVuSans-33"/>
       <use xlink:href="#DejaVuSans-30" x="63.623047"/>
      </g>
     </g>
    </g>
    <g id="text_6">
     <!-- Time in Solution $(min)$ -->
     <g transform="translate(166.913125 301.588562) scale(0.1 -0.1)">
      <defs>
       <path id="DejaVuSans-54" d="M -19 4666 
L 3928 4666 
L 3928 4134 
L 2272 4134 
L 2272 0 
L 1638 0 
L 1638 4134 
L -19 4134 
L -19 4666 
z
" transform="scale(0.015625)"/>
       <path id="DejaVuSans-69" d="M 603 3500 
L 1178 3500 
L 1178 0 
L 603 0 
L 603 3500 
z
M 603 4863 
L 1178 4863 
L 1178 4134 
L 603 4134 
L 603 4863 
z
" transform="scale(0.015625)"/>
       <path id="DejaVuSans-6d" d="M 3328 2828 
Q 3544 3216 3844 3400 
Q 4144 3584 4550 3584 
Q 5097 3584 5394 3201 
Q 5691 2819 5691 2113 
L 5691 0 
L 5113 0 
L 5113 2094 
Q 5113 2597 4934 2840 
Q 4756 3084 4391 3084 
Q 3944 3084 3684 2787 
Q 3425 2491 3425 1978 
L 3425 0 
L 2847 0 
L 2847 2094 
Q 2847 2600 2669 2842 
Q 2491 3084 2119 3084 
Q 1678 3084 1418 2786 
Q 1159 2488 1159 1978 
L 1159 0 
L 581 0 
L 581 3500 
L 1159 3500 
L 1159 2956 
Q 1356 3278 1631 3431 
Q 1906 3584 2284 3584 
Q 2666 3584 2933 3390 
Q 3200 3197 3328 2828 
z
" transform="scale(0.015625)"/>
       <path id="DejaVuSans-65" d="M 3597 1894 
L 3597 1613 
L 953 1613 
Q 991 1019 1311 708 
Q 1631 397 2203 397 
Q 2534 397 2845 478 
Q 3156 559 3463 722 
L 3463 178 
Q 3153 47 2828 -22 
Q 2503 -91 2169 -91 
Q 1331 -91 842 396 
Q 353 884 353 1716 
Q 353 2575 817 3079 
Q 1281 3584 2069 3584 
Q 2775 3584 3186 3129 
Q 3597 2675 3597 1894 
z
M 3022 2063 
Q 3016 2534 2758 2815 
Q 2500 3097 2075 3097 
Q 1594 3097 1305 2825 
Q 1016 2553 972 2059 
L 3022 2063 
z
" transform="scale(0.015625)"/>
       <path id="DejaVuSans-20" transform="scale(0.015625)"/>
       <path id="DejaVuSans-6e" d="M 3513 2113 
L 3513 0 
L 2938 0 
L 2938 2094 
Q 2938 2591 2744 2837 
Q 2550 3084 2163 3084 
Q 1697 3084 1428 2787 
Q 1159 2491 1159 1978 
L 1159 0 
L 581 0 
L 581 3500 
L 1159 3500 
L 1159 2956 
Q 1366 3272 1645 3428 
Q 1925 3584 2291 3584 
Q 2894 3584 3203 3211 
Q 3513 2838 3513 2113 
z
" transform="scale(0.015625)"/>
       <path id="DejaVuSans-53" d="M 3425 4513 
L 3425 3897 
Q 3066 4069 2747 4153 
Q 2428 4238 2131 4238 
Q 1616 4238 1336 4038 
Q 1056 3838 1056 3469 
Q 1056 3159 1242 3001 
Q 1428 2844 1947 2747 
L 2328 2669 
Q 3034 2534 3370 2195 
Q 3706 1856 3706 1288 
Q 3706 609 3251 259 
Q 2797 -91 1919 -91 
Q 1588 -91 1214 -16 
Q 841 59 441 206 
L 441 856 
Q 825 641 1194 531 
Q 1563 422 1919 422 
Q 2459 422 2753 634 
Q 3047 847 3047 1241 
Q 3047 1584 2836 1778 
Q 2625 1972 2144 2069 
L 1759 2144 
Q 1053 2284 737 2584 
Q 422 2884 422 3419 
Q 422 4038 858 4394 
Q 1294 4750 2059 4750 
Q 2388 4750 2728 4690 
Q 3069 4631 3425 4513 
z
" transform="scale(0.015625)"/>
       <path id="DejaVuSans-6f" d="M 1959 3097 
Q 1497 3097 1228 2736 
Q 959 2375 959 1747 
Q 959 1119 1226 758 
Q 1494 397 1959 397 
Q 2419 397 2687 759 
Q 2956 1122 2956 1747 
Q 2956 2369 2687 2733 
Q 2419 3097 1959 3097 
z
M 1959 3584 
Q 2709 3584 3137 3096 
Q 3566 2609 3566 1747 
Q 3566 888 3137 398 
Q 2709 -91 1959 -91 
Q 1206 -91 779 398 
Q 353 888 353 1747 
Q 353 2609 779 3096 
Q 1206 3584 1959 3584 
z
" transform="scale(0.015625)"/>
       <path id="DejaVuSans-6c" d="M 603 4863 
L 1178 4863 
L 1178 0 
L 603 0 
L 603 4863 
z
" transform="scale(0.015625)"/>
       <path id="DejaVuSans-75" d="M 544 1381 
L 544 3500 
L 1119 3500 
L 1119 1403 
Q 1119 906 1312 657 
Q 1506 409 1894 409 
Q 2359 409 2629 706 
Q 2900 1003 2900 1516 
L 2900 3500 
L 3475 3500 
L 3475 0 
L 2900 0 
L 2900 538 
Q 2691 219 2414 64 
Q 2138 -91 1772 -91 
Q 1169 -91 856 284 
Q 544 659 544 1381 
z
M 1991 3584 
L 1991 3584 
z
" transform="scale(0.015625)"/>
       <path id="DejaVuSans-74" d="M 1172 4494 
L 1172 3500 
L 2356 3500 
L 2356 3053 
L 1172 3053 
L 1172 1153 
Q 1172 725 1289 603 
Q 1406 481 1766 481 
L 2356 481 
L 2356 0 
L 1766 0 
Q 1100 0 847 248 
Q 594 497 594 1153 
L 594 3053 
L 172 3053 
L 172 3500 
L 594 3500 
L 594 4494 
L 1172 4494 
z
" transform="scale(0.015625)"/>
       <path id="DejaVuSans-28" d="M 1984 4856 
Q 1566 4138 1362 3434 
Q 1159 2731 1159 2009 
Q 1159 1288 1364 580 
Q 1569 -128 1984 -844 
L 1484 -844 
Q 1016 -109 783 600 
Q 550 1309 550 2009 
Q 550 2706 781 3412 
Q 1013 4119 1484 4856 
L 1984 4856 
z
" transform="scale(0.015625)"/>
       <path id="DejaVuSans-Oblique-6d" d="M 5747 2113 
L 5338 0 
L 4763 0 
L 5166 2094 
Q 5191 2228 5203 2325 
Q 5216 2422 5216 2491 
Q 5216 2772 5059 2928 
Q 4903 3084 4622 3084 
Q 4203 3084 3875 2770 
Q 3547 2456 3450 1953 
L 3066 0 
L 2491 0 
L 2900 2094 
Q 2925 2209 2937 2307 
Q 2950 2406 2950 2484 
Q 2950 2769 2794 2926 
Q 2638 3084 2363 3084 
Q 1938 3084 1609 2770 
Q 1281 2456 1184 1953 
L 800 0 
L 225 0 
L 909 3500 
L 1484 3500 
L 1375 2956 
Q 1609 3263 1923 3423 
Q 2238 3584 2597 3584 
Q 2978 3584 3223 3384 
Q 3469 3184 3519 2828 
Q 3781 3197 4126 3390 
Q 4472 3584 4856 3584 
Q 5306 3584 5551 3325 
Q 5797 3066 5797 2591 
Q 5797 2488 5784 2364 
Q 5772 2241 5747 2113 
z
" transform="scale(0.015625)"/>
       <path id="DejaVuSans-Oblique-69" d="M 1172 4863 
L 1747 4863 
L 1606 4134 
L 1031 4134 
L 1172 4863 
z
M 909 3500 
L 1484 3500 
L 800 0 
L 225 0 
L 909 3500 
z
" transform="scale(0.015625)"/>
       <path id="DejaVuSans-Oblique-6e" d="M 3566 2113 
L 3156 0 
L 2578 0 
L 2988 2091 
Q 3016 2238 3031 2350 
Q 3047 2463 3047 2528 
Q 3047 2791 2881 2937 
Q 2716 3084 2419 3084 
Q 1956 3084 1622 2776 
Q 1288 2469 1184 1941 
L 800 0 
L 225 0 
L 903 3500 
L 1478 3500 
L 1363 2950 
Q 1603 3253 1940 3418 
Q 2278 3584 2650 3584 
Q 3113 3584 3367 3334 
Q 3622 3084 3622 2631 
Q 3622 2519 3608 2391 
Q 3594 2263 3566 2113 
z
" transform="scale(0.015625)"/>
       <path id="DejaVuSans-29" d="M 513 4856 
L 1013 4856 
Q 1481 4119 1714 3412 
Q 1947 2706 1947 2009 
Q 1947 1309 1714 600 
Q 1481 -109 1013 -844 
L 513 -844 
Q 928 -128 1133 580 
Q 1338 1288 1338 2009 
Q 1338 2731 1133 3434 
Q 928 4138 513 4856 
z
" transform="scale(0.015625)"/>
      </defs>
      <use xlink:href="#DejaVuSans-54" transform="translate(0 0.015625)"/>
      <use xlink:href="#DejaVuSans-69" transform="translate(61.083984 0.015625)"/>
      <use xlink:href="#DejaVuSans-6d" transform="translate(88.867188 0.015625)"/>
      <use xlink:href="#DejaVuSans-65" transform="translate(186.279297 0.015625)"/>
      <use xlink:href="#DejaVuSans-20" transform="translate(247.802734 0.015625)"/>
      <use xlink:href="#DejaVuSans-69" transform="translate(279.589844 0.015625)"/>
      <use xlink:href="#DejaVuSans-6e" transform="translate(307.373047 0.015625)"/>
      <use xlink:href="#DejaVuSans-20" transform="translate(370.751953 0.015625)"/>
      <use xlink:href="#DejaVuSans-53" transform="translate(402.539062 0.015625)"/>
      <use xlink:href="#DejaVuSans-6f" transform="translate(466.015625 0.015625)"/>
      <use xlink:href="#DejaVuSans-6c" transform="translate(527.197266 0.015625)"/>
      <use xlink:href="#DejaVuSans-75" transform="translate(554.980469 0.015625)"/>
      <use xlink:href="#DejaVuSans-74" transform="translate(618.359375 0.015625)"/>
      <use xlink:href="#DejaVuSans-69" transform="translate(657.568359 0.015625)"/>
      <use xlink:href="#DejaVuSans-6f" transform="translate(685.351562 0.015625)"/>
      <use xlink:href="#DejaVuSans-6e" transform="translate(746.533203 0.015625)"/>
      <use xlink:href="#DejaVuSans-20" transform="translate(809.912109 0.015625)"/>
      <use xlink:href="#DejaVuSans-28" transform="translate(841.699219 0.015625)"/>
      <use xlink:href="#DejaVuSans-Oblique-6d" transform="translate(880.712891 0.015625)"/>
      <use xlink:href="#DejaVuSans-Oblique-69" transform="translate(978.125 0.015625)"/>
      <use xlink:href="#DejaVuSans-Oblique-6e" transform="translate(1005.908203 0.015625)"/>
      <use xlink:href="#DejaVuSans-29" transform="translate(1069.287109 0.015625)"/>
     </g>
    </g>
   </g>
   <g id="matplotlib.axis_2">
    <g id="ytick_1">
     <g id="line2d_11">
      <path d="M 43.803125 273.312 
L 400.923125 273.312 
" clip-path="url(#p64cea90ea5)" style="fill: none; stroke: #b0b0b0; stroke-width: 0.8; stroke-linecap: square"/>
     </g>
     <g id="line2d_12">
      <defs>
       <path id="ma5be204604" d="M 0 0 
L -3.5 0 
" style="stroke: #000000; stroke-width: 0.8"/>
      </defs>
      <g>
       <use xlink:href="#ma5be204604" x="43.803125" y="273.312" style="stroke: #000000; stroke-width: 0.8"/>
      </g>
     </g>
     <g id="text_7">
      <!-- 0.0 -->
      <g transform="translate(20.9 277.111219) scale(0.1 -0.1)">
       <defs>
        <path id="DejaVuSans-2e" d="M 684 794 
L 1344 794 
L 1344 0 
L 684 0 
L 684 794 
z
" transform="scale(0.015625)"/>
       </defs>
       <use xlink:href="#DejaVuSans-30"/>
       <use xlink:href="#DejaVuSans-2e" x="63.623047"/>
       <use xlink:href="#DejaVuSans-30" x="95.410156"/>
      </g>
     </g>
    </g>
    <g id="ytick_2">
     <g id="line2d_13">
      <path d="M 43.803125 230.73408 
L 400.923125 230.73408 
" clip-path="url(#p64cea90ea5)" style="fill: none; stroke: #b0b0b0; stroke-width: 0.8; stroke-linecap: square"/>
     </g>
     <g id="line2d_14">
      <g>
       <use xlink:href="#ma5be204604" x="43.803125" y="230.73408" style="stroke: #000000; stroke-width: 0.8"/>
      </g>
     </g>
     <g id="text_8">
      <!-- 0.2 -->
      <g transform="translate(20.9 234.533299) scale(0.1 -0.1)">
       <defs>
        <path id="DejaVuSans-32" d="M 1228 531 
L 3431 531 
L 3431 0 
L 469 0 
L 469 531 
Q 828 903 1448 1529 
Q 2069 2156 2228 2338 
Q 2531 2678 2651 2914 
Q 2772 3150 2772 3378 
Q 2772 3750 2511 3984 
Q 2250 4219 1831 4219 
Q 1534 4219 1204 4116 
Q 875 4013 500 3803 
L 500 4441 
Q 881 4594 1212 4672 
Q 1544 4750 1819 4750 
Q 2544 4750 2975 4387 
Q 3406 4025 3406 3419 
Q 3406 3131 3298 2873 
Q 3191 2616 2906 2266 
Q 2828 2175 2409 1742 
Q 1991 1309 1228 531 
z
" transform="scale(0.015625)"/>
       </defs>
       <use xlink:href="#DejaVuSans-30"/>
       <use xlink:href="#DejaVuSans-2e" x="63.623047"/>
       <use xlink:href="#DejaVuSans-32" x="95.410156"/>
      </g>
     </g>
    </g>
    <g id="ytick_3">
     <g id="line2d_15">
      <path d="M 43.803125 188.15616 
L 400.923125 188.15616 
" clip-path="url(#p64cea90ea5)" style="fill: none; stroke: #b0b0b0; stroke-width: 0.8; stroke-linecap: square"/>
     </g>
     <g id="line2d_16">
      <g>
       <use xlink:href="#ma5be204604" x="43.803125" y="188.15616" style="stroke: #000000; stroke-width: 0.8"/>
      </g>
     </g>
     <g id="text_9">
      <!-- 0.4 -->
      <g transform="translate(20.9 191.955379) scale(0.1 -0.1)">
       <defs>
        <path id="DejaVuSans-34" d="M 2419 4116 
L 825 1625 
L 2419 1625 
L 2419 4116 
z
M 2253 4666 
L 3047 4666 
L 3047 1625 
L 3713 1625 
L 3713 1100 
L 3047 1100 
L 3047 0 
L 2419 0 
L 2419 1100 
L 313 1100 
L 313 1709 
L 2253 4666 
z
" transform="scale(0.015625)"/>
       </defs>
       <use xlink:href="#DejaVuSans-30"/>
       <use xlink:href="#DejaVuSans-2e" x="63.623047"/>
       <use xlink:href="#DejaVuSans-34" x="95.410156"/>
      </g>
     </g>
    </g>
    <g id="ytick_4">
     <g id="line2d_17">
      <path d="M 43.803125 145.57824 
L 400.923125 145.57824 
" clip-path="url(#p64cea90ea5)" style="fill: none; stroke: #b0b0b0; stroke-width: 0.8; stroke-linecap: square"/>
     </g>
     <g id="line2d_18">
      <g>
       <use xlink:href="#ma5be204604" x="43.803125" y="145.57824" style="stroke: #000000; stroke-width: 0.8"/>
      </g>
     </g>
     <g id="text_10">
      <!-- 0.6 -->
      <g transform="translate(20.9 149.377459) scale(0.1 -0.1)">
       <defs>
        <path id="DejaVuSans-36" d="M 2113 2584 
Q 1688 2584 1439 2293 
Q 1191 2003 1191 1497 
Q 1191 994 1439 701 
Q 1688 409 2113 409 
Q 2538 409 2786 701 
Q 3034 994 3034 1497 
Q 3034 2003 2786 2293 
Q 2538 2584 2113 2584 
z
M 3366 4563 
L 3366 3988 
Q 3128 4100 2886 4159 
Q 2644 4219 2406 4219 
Q 1781 4219 1451 3797 
Q 1122 3375 1075 2522 
Q 1259 2794 1537 2939 
Q 1816 3084 2150 3084 
Q 2853 3084 3261 2657 
Q 3669 2231 3669 1497 
Q 3669 778 3244 343 
Q 2819 -91 2113 -91 
Q 1303 -91 875 529 
Q 447 1150 447 2328 
Q 447 3434 972 4092 
Q 1497 4750 2381 4750 
Q 2619 4750 2861 4703 
Q 3103 4656 3366 4563 
z
" transform="scale(0.015625)"/>
       </defs>
       <use xlink:href="#DejaVuSans-30"/>
       <use xlink:href="#DejaVuSans-2e" x="63.623047"/>
       <use xlink:href="#DejaVuSans-36" x="95.410156"/>
      </g>
     </g>
    </g>
    <g id="ytick_5">
     <g id="line2d_19">
      <path d="M 43.803125 103.00032 
L 400.923125 103.00032 
" clip-path="url(#p64cea90ea5)" style="fill: none; stroke: #b0b0b0; stroke-width: 0.8; stroke-linecap: square"/>
     </g>
     <g id="line2d_20">
      <g>
       <use xlink:href="#ma5be204604" x="43.803125" y="103.00032" style="stroke: #000000; stroke-width: 0.8"/>
      </g>
     </g>
     <g id="text_11">
      <!-- 0.8 -->
      <g transform="translate(20.9 106.799539) scale(0.1 -0.1)">
       <defs>
        <path id="DejaVuSans-38" d="M 2034 2216 
Q 1584 2216 1326 1975 
Q 1069 1734 1069 1313 
Q 1069 891 1326 650 
Q 1584 409 2034 409 
Q 2484 409 2743 651 
Q 3003 894 3003 1313 
Q 3003 1734 2745 1975 
Q 2488 2216 2034 2216 
z
M 1403 2484 
Q 997 2584 770 2862 
Q 544 3141 544 3541 
Q 544 4100 942 4425 
Q 1341 4750 2034 4750 
Q 2731 4750 3128 4425 
Q 3525 4100 3525 3541 
Q 3525 3141 3298 2862 
Q 3072 2584 2669 2484 
Q 3125 2378 3379 2068 
Q 3634 1759 3634 1313 
Q 3634 634 3220 271 
Q 2806 -91 2034 -91 
Q 1263 -91 848 271 
Q 434 634 434 1313 
Q 434 1759 690 2068 
Q 947 2378 1403 2484 
z
M 1172 3481 
Q 1172 3119 1398 2916 
Q 1625 2713 2034 2713 
Q 2441 2713 2670 2916 
Q 2900 3119 2900 3481 
Q 2900 3844 2670 4047 
Q 2441 4250 2034 4250 
Q 1625 4250 1398 4047 
Q 1172 3844 1172 3481 
z
" transform="scale(0.015625)"/>
       </defs>
       <use xlink:href="#DejaVuSans-30"/>
       <use xlink:href="#DejaVuSans-2e" x="63.623047"/>
       <use xlink:href="#DejaVuSans-38" x="95.410156"/>
      </g>
     </g>
    </g>
    <g id="ytick_6">
     <g id="line2d_21">
      <path d="M 43.803125 60.4224 
L 400.923125 60.4224 
" clip-path="url(#p64cea90ea5)" style="fill: none; stroke: #b0b0b0; stroke-width: 0.8; stroke-linecap: square"/>
     </g>
     <g id="line2d_22">
      <g>
       <use xlink:href="#ma5be204604" x="43.803125" y="60.4224" style="stroke: #000000; stroke-width: 0.8"/>
      </g>
     </g>
     <g id="text_12">
      <!-- 1.0 -->
      <g transform="translate(20.9 64.221619) scale(0.1 -0.1)">
       <use xlink:href="#DejaVuSans-31"/>
       <use xlink:href="#DejaVuSans-2e" x="63.623047"/>
       <use xlink:href="#DejaVuSans-30" x="95.410156"/>
      </g>
     </g>
    </g>
    <g id="ytick_7">
     <g id="line2d_23">
      <path d="M 43.803125 17.84448 
L 400.923125 17.84448 
" clip-path="url(#p64cea90ea5)" style="fill: none; stroke: #b0b0b0; stroke-width: 0.8; stroke-linecap: square"/>
     </g>
     <g id="line2d_24">
      <g>
       <use xlink:href="#ma5be204604" x="43.803125" y="17.84448" style="stroke: #000000; stroke-width: 0.8"/>
      </g>
     </g>
     <g id="text_13">
      <!-- 1.2 -->
      <g transform="translate(20.9 21.643699) scale(0.1 -0.1)">
       <use xlink:href="#DejaVuSans-31"/>
       <use xlink:href="#DejaVuSans-2e" x="63.623047"/>
       <use xlink:href="#DejaVuSans-32" x="95.410156"/>
      </g>
     </g>
    </g>
    <g id="text_14">
     <!-- Saline Absorbed $(g)$ -->
     <g transform="translate(14.8 189.556) rotate(-90) scale(0.1 -0.1)">
      <defs>
       <path id="DejaVuSans-61" d="M 2194 1759 
Q 1497 1759 1228 1600 
Q 959 1441 959 1056 
Q 959 750 1161 570 
Q 1363 391 1709 391 
Q 2188 391 2477 730 
Q 2766 1069 2766 1631 
L 2766 1759 
L 2194 1759 
z
M 3341 1997 
L 3341 0 
L 2766 0 
L 2766 531 
Q 2569 213 2275 61 
Q 1981 -91 1556 -91 
Q 1019 -91 701 211 
Q 384 513 384 1019 
Q 384 1609 779 1909 
Q 1175 2209 1959 2209 
L 2766 2209 
L 2766 2266 
Q 2766 2663 2505 2880 
Q 2244 3097 1772 3097 
Q 1472 3097 1187 3025 
Q 903 2953 641 2809 
L 641 3341 
Q 956 3463 1253 3523 
Q 1550 3584 1831 3584 
Q 2591 3584 2966 3190 
Q 3341 2797 3341 1997 
z
" transform="scale(0.015625)"/>
       <path id="DejaVuSans-41" d="M 2188 4044 
L 1331 1722 
L 3047 1722 
L 2188 4044 
z
M 1831 4666 
L 2547 4666 
L 4325 0 
L 3669 0 
L 3244 1197 
L 1141 1197 
L 716 0 
L 50 0 
L 1831 4666 
z
" transform="scale(0.015625)"/>
       <path id="DejaVuSans-62" d="M 3116 1747 
Q 3116 2381 2855 2742 
Q 2594 3103 2138 3103 
Q 1681 3103 1420 2742 
Q 1159 2381 1159 1747 
Q 1159 1113 1420 752 
Q 1681 391 2138 391 
Q 2594 391 2855 752 
Q 3116 1113 3116 1747 
z
M 1159 2969 
Q 1341 3281 1617 3432 
Q 1894 3584 2278 3584 
Q 2916 3584 3314 3078 
Q 3713 2572 3713 1747 
Q 3713 922 3314 415 
Q 2916 -91 2278 -91 
Q 1894 -91 1617 61 
Q 1341 213 1159 525 
L 1159 0 
L 581 0 
L 581 4863 
L 1159 4863 
L 1159 2969 
z
" transform="scale(0.015625)"/>
       <path id="DejaVuSans-73" d="M 2834 3397 
L 2834 2853 
Q 2591 2978 2328 3040 
Q 2066 3103 1784 3103 
Q 1356 3103 1142 2972 
Q 928 2841 928 2578 
Q 928 2378 1081 2264 
Q 1234 2150 1697 2047 
L 1894 2003 
Q 2506 1872 2764 1633 
Q 3022 1394 3022 966 
Q 3022 478 2636 193 
Q 2250 -91 1575 -91 
Q 1294 -91 989 -36 
Q 684 19 347 128 
L 347 722 
Q 666 556 975 473 
Q 1284 391 1588 391 
Q 1994 391 2212 530 
Q 2431 669 2431 922 
Q 2431 1156 2273 1281 
Q 2116 1406 1581 1522 
L 1381 1569 
Q 847 1681 609 1914 
Q 372 2147 372 2553 
Q 372 3047 722 3315 
Q 1072 3584 1716 3584 
Q 2034 3584 2315 3537 
Q 2597 3491 2834 3397 
z
" transform="scale(0.015625)"/>
       <path id="DejaVuSans-72" d="M 2631 2963 
Q 2534 3019 2420 3045 
Q 2306 3072 2169 3072 
Q 1681 3072 1420 2755 
Q 1159 2438 1159 1844 
L 1159 0 
L 581 0 
L 581 3500 
L 1159 3500 
L 1159 2956 
Q 1341 3275 1631 3429 
Q 1922 3584 2338 3584 
Q 2397 3584 2469 3576 
Q 2541 3569 2628 3553 
L 2631 2963 
z
" transform="scale(0.015625)"/>
       <path id="DejaVuSans-64" d="M 2906 2969 
L 2906 4863 
L 3481 4863 
L 3481 0 
L 2906 0 
L 2906 525 
Q 2725 213 2448 61 
Q 2172 -91 1784 -91 
Q 1150 -91 751 415 
Q 353 922 353 1747 
Q 353 2572 751 3078 
Q 1150 3584 1784 3584 
Q 2172 3584 2448 3432 
Q 2725 3281 2906 2969 
z
M 947 1747 
Q 947 1113 1208 752 
Q 1469 391 1925 391 
Q 2381 391 2643 752 
Q 2906 1113 2906 1747 
Q 2906 2381 2643 2742 
Q 2381 3103 1925 3103 
Q 1469 3103 1208 2742 
Q 947 2381 947 1747 
z
" transform="scale(0.015625)"/>
       <path id="DejaVuSans-Oblique-67" d="M 3816 3500 
L 3219 434 
Q 3047 -456 2561 -893 
Q 2075 -1331 1253 -1331 
Q 950 -1331 690 -1286 
Q 431 -1241 206 -1147 
L 313 -588 
Q 525 -725 762 -790 
Q 1000 -856 1269 -856 
Q 1816 -856 2167 -557 
Q 2519 -259 2631 300 
L 2681 563 
Q 2441 288 2122 144 
Q 1803 0 1434 0 
Q 903 0 598 351 
Q 294 703 294 1319 
Q 294 1803 478 2267 
Q 663 2731 997 3091 
Q 1219 3328 1514 3456 
Q 1809 3584 2131 3584 
Q 2484 3584 2746 3420 
Q 3009 3256 3138 2956 
L 3238 3500 
L 3816 3500 
z
M 2950 2216 
Q 2950 2641 2750 2872 
Q 2550 3103 2181 3103 
Q 1953 3103 1747 3012 
Q 1541 2922 1394 2759 
Q 1156 2491 1023 2127 
Q 891 1763 891 1375 
Q 891 944 1092 712 
Q 1294 481 1672 481 
Q 2219 481 2584 976 
Q 2950 1472 2950 2216 
z
" transform="scale(0.015625)"/>
      </defs>
      <use xlink:href="#DejaVuSans-53" transform="translate(0 0.015625)"/>
      <use xlink:href="#DejaVuSans-61" transform="translate(63.476562 0.015625)"/>
      <use xlink:href="#DejaVuSans-6c" transform="translate(124.755859 0.015625)"/>
      <use xlink:href="#DejaVuSans-69" transform="translate(152.539062 0.015625)"/>
      <use xlink:href="#DejaVuSans-6e" transform="translate(180.322266 0.015625)"/>
      <use xlink:href="#DejaVuSans-65" transform="translate(243.701172 0.015625)"/>
      <use xlink:href="#DejaVuSans-20" transform="translate(305.224609 0.015625)"/>
      <use xlink:href="#DejaVuSans-41" transform="translate(337.011719 0.015625)"/>
      <use xlink:href="#DejaVuSans-62" transform="translate(405.419922 0.015625)"/>
      <use xlink:href="#DejaVuSans-73" transform="translate(468.896484 0.015625)"/>
      <use xlink:href="#DejaVuSans-6f" transform="translate(520.996094 0.015625)"/>
      <use xlink:href="#DejaVuSans-72" transform="translate(582.177734 0.015625)"/>
      <use xlink:href="#DejaVuSans-62" transform="translate(623.291016 0.015625)"/>
      <use xlink:href="#DejaVuSans-65" transform="translate(686.767578 0.015625)"/>
      <use xlink:href="#DejaVuSans-64" transform="translate(748.291016 0.015625)"/>
      <use xlink:href="#DejaVuSans-20" transform="translate(811.767578 0.015625)"/>
      <use xlink:href="#DejaVuSans-28" transform="translate(843.554688 0.015625)"/>
      <use xlink:href="#DejaVuSans-Oblique-67" transform="translate(882.568359 0.015625)"/>
      <use xlink:href="#DejaVuSans-29" transform="translate(946.044922 0.015625)"/>
     </g>
    </g>
   </g>
   <g id="line2d_25">
    <path d="M 43.803125 273.312 
L 55.511977 181.81205 
L 102.347387 136.296253 
L 160.89165 125.971108 
L 395.068699 123.6719 
" clip-path="url(#p64cea90ea5)" style="fill: none; stroke: #008000; stroke-opacity: 0.8; stroke-width: 2; stroke-linecap: square"/>
    <defs>
     <path id="mcf4866097d" d="M 0 2 
C 0.530406 2 1.03916 1.789267 1.414214 1.414214 
C 1.789267 1.03916 2 0.530406 2 0 
C 2 -0.530406 1.789267 -1.03916 1.414214 -1.414214 
C 1.03916 -1.789267 0.530406 -2 0 -2 
C -0.530406 -2 -1.03916 -1.789267 -1.414214 -1.414214 
C -1.789267 -1.03916 -2 -0.530406 -2 0 
C -2 0.530406 -1.789267 1.03916 -1.414214 1.414214 
C -1.03916 1.789267 -0.530406 2 0 2 
z
" style="stroke: #008000; stroke-opacity: 0.8"/>
    </defs>
    <g clip-path="url(#p64cea90ea5)">
     <use xlink:href="#mcf4866097d" x="43.803125" y="273.312" style="fill: #008000; fill-opacity: 0.8; stroke: #008000; stroke-opacity: 0.8"/>
     <use xlink:href="#mcf4866097d" x="55.511977" y="181.81205" style="fill: #008000; fill-opacity: 0.8; stroke: #008000; stroke-opacity: 0.8"/>
     <use xlink:href="#mcf4866097d" x="102.347387" y="136.296253" style="fill: #008000; fill-opacity: 0.8; stroke: #008000; stroke-opacity: 0.8"/>
     <use xlink:href="#mcf4866097d" x="160.89165" y="125.971108" style="fill: #008000; fill-opacity: 0.8; stroke: #008000; stroke-opacity: 0.8"/>
     <use xlink:href="#mcf4866097d" x="395.068699" y="123.6719" style="fill: #008000; fill-opacity: 0.8; stroke: #008000; stroke-opacity: 0.8"/>
    </g>
   </g>
   <g id="line2d_26">
    <path d="M 43.803125 273.312 
L 55.511977 178.703862 
L 102.347387 149.154785 
L 160.89165 116.263342 
L 395.068699 104.554414 
" clip-path="url(#p64cea90ea5)" style="fill: none; stroke: #20b2aa; stroke-opacity: 0.8; stroke-width: 2; stroke-linecap: square"/>
    <defs>
     <path id="m66f2c3a634" d="M 0 2 
C 0.530406 2 1.03916 1.789267 1.414214 1.414214 
C 1.789267 1.03916 2 0.530406 2 0 
C 2 -0.530406 1.789267 -1.03916 1.414214 -1.414214 
C 1.03916 -1.789267 0.530406 -2 0 -2 
C -0.530406 -2 -1.03916 -1.789267 -1.414214 -1.414214 
C -1.789267 -1.03916 -2 -0.530406 -2 0 
C -2 0.530406 -1.789267 1.03916 -1.414214 1.414214 
C -1.03916 1.789267 -0.530406 2 0 2 
z
" style="stroke: #20b2aa; stroke-opacity: 0.8"/>
    </defs>
    <g clip-path="url(#p64cea90ea5)">
     <use xlink:href="#m66f2c3a634" x="43.803125" y="273.312" style="fill: #20b2aa; fill-opacity: 0.8; stroke: #20b2aa; stroke-opacity: 0.8"/>
     <use xlink:href="#m66f2c3a634" x="55.511977" y="178.703862" style="fill: #20b2aa; fill-opacity: 0.8; stroke: #20b2aa; stroke-opacity: 0.8"/>
     <use xlink:href="#m66f2c3a634" x="102.347387" y="149.154785" style="fill: #20b2aa; fill-opacity: 0.8; stroke: #20b2aa; stroke-opacity: 0.8"/>
     <use xlink:href="#m66f2c3a634" x="160.89165" y="116.263342" style="fill: #20b2aa; fill-opacity: 0.8; stroke: #20b2aa; stroke-opacity: 0.8"/>
     <use xlink:href="#m66f2c3a634" x="395.068699" y="104.554414" style="fill: #20b2aa; fill-opacity: 0.8; stroke: #20b2aa; stroke-opacity: 0.8"/>
    </g>
   </g>
   <g id="line2d_27">
    <path d="M 43.803125 273.312 
L 55.511977 192.307507 
L 102.347387 141.639782 
L 160.89165 170.401167 
L 395.068699 120.989491 
" clip-path="url(#p64cea90ea5)" style="fill: none; stroke: #00ff00; stroke-opacity: 0.8; stroke-width: 2; stroke-linecap: square"/>
    <defs>
     <path id="m6374249669" d="M 0 2 
C 0.530406 2 1.03916 1.789267 1.414214 1.414214 
C 1.789267 1.03916 2 0.530406 2 0 
C 2 -0.530406 1.789267 -1.03916 1.414214 -1.414214 
C 1.03916 -1.789267 0.530406 -2 0 -2 
C -0.530406 -2 -1.03916 -1.789267 -1.414214 -1.414214 
C -1.789267 -1.03916 -2 -0.530406 -2 0 
C -2 0.530406 -1.789267 1.03916 -1.414214 1.414214 
C -1.03916 1.789267 -0.530406 2 0 2 
z
" style="stroke: #00ff00; stroke-opacity: 0.8"/>
    </defs>
    <g clip-path="url(#p64cea90ea5)">
     <use xlink:href="#m6374249669" x="43.803125" y="273.312" style="fill: #00ff00; fill-opacity: 0.8; stroke: #00ff00; stroke-opacity: 0.8"/>
     <use xlink:href="#m6374249669" x="55.511977" y="192.307507" style="fill: #00ff00; fill-opacity: 0.8; stroke: #00ff00; stroke-opacity: 0.8"/>
     <use xlink:href="#m6374249669" x="102.347387" y="141.639782" style="fill: #00ff00; fill-opacity: 0.8; stroke: #00ff00; stroke-opacity: 0.8"/>
     <use xlink:href="#m6374249669" x="160.89165" y="170.401167" style="fill: #00ff00; fill-opacity: 0.8; stroke: #00ff00; stroke-opacity: 0.8"/>
     <use xlink:href="#m6374249669" x="395.068699" y="120.989491" style="fill: #00ff00; fill-opacity: 0.8; stroke: #00ff00; stroke-opacity: 0.8"/>
    </g>
   </g>
   <g id="line2d_28">
    <path d="M 43.803125 273.312 
L 55.511977 160.097311 
L 102.347387 166.356265 
L 160.89165 117.604547 
L 395.068699 90.120499 
" clip-path="url(#p64cea90ea5)" style="fill: none; stroke: #00ffff; stroke-opacity: 0.8; stroke-width: 2; stroke-linecap: square"/>
    <defs>
     <path id="m40ae664c7a" d="M 0 2 
C 0.530406 2 1.03916 1.789267 1.414214 1.414214 
C 1.789267 1.03916 2 0.530406 2 0 
C 2 -0.530406 1.789267 -1.03916 1.414214 -1.414214 
C 1.03916 -1.789267 0.530406 -2 0 -2 
C -0.530406 -2 -1.03916 -1.789267 -1.414214 -1.414214 
C -1.789267 -1.03916 -2 -0.530406 -2 0 
C -2 0.530406 -1.789267 1.03916 -1.414214 1.414214 
C -1.03916 1.789267 -0.530406 2 0 2 
z
" style="stroke: #00ffff; stroke-opacity: 0.8"/>
    </defs>
    <g clip-path="url(#p64cea90ea5)">
     <use xlink:href="#m40ae664c7a" x="43.803125" y="273.312" style="fill: #00ffff; fill-opacity: 0.8; stroke: #00ffff; stroke-opacity: 0.8"/>
     <use xlink:href="#m40ae664c7a" x="55.511977" y="160.097311" style="fill: #00ffff; fill-opacity: 0.8; stroke: #00ffff; stroke-opacity: 0.8"/>
     <use xlink:href="#m40ae664c7a" x="102.347387" y="166.356265" style="fill: #00ffff; fill-opacity: 0.8; stroke: #00ffff; stroke-opacity: 0.8"/>
     <use xlink:href="#m40ae664c7a" x="160.89165" y="117.604547" style="fill: #00ffff; fill-opacity: 0.8; stroke: #00ffff; stroke-opacity: 0.8"/>
     <use xlink:href="#m40ae664c7a" x="395.068699" y="90.120499" style="fill: #00ffff; fill-opacity: 0.8; stroke: #00ffff; stroke-opacity: 0.8"/>
    </g>
   </g>
   <g id="patch_3">
    <path d="M 43.803125 273.312 
L 43.803125 7.2 
" style="fill: none; stroke: #000000; stroke-width: 0.8; stroke-linejoin: miter; stroke-linecap: square"/>
   </g>
   <g id="patch_4">
    <path d="M 400.923125 273.312 
L 400.923125 7.2 
" style="fill: none; stroke: #000000; stroke-width: 0.8; stroke-linejoin: miter; stroke-linecap: square"/>
   </g>
   <g id="patch_5">
    <path d="M 43.803125 273.312 
L 400.923125 273.312 
" style="fill: none; stroke: #000000; stroke-width: 0.8; stroke-linejoin: miter; stroke-linecap: square"/>
   </g>
   <g id="patch_6">
    <path d="M 43.803125 7.2 
L 400.923125 7.2 
" style="fill: none; stroke: #000000; stroke-width: 0.8; stroke-linejoin: miter; stroke-linecap: square"/>
   </g>
   <g id="LineCollection_1">
    <path d="M 43.803125 273.312 
L 43.803125 273.312 
" clip-path="url(#p64cea90ea5)" style="fill: none; stroke: #000000; stroke-opacity: 0.3; stroke-width: 1.5"/>
    <path d="M 55.511977 186.814956 
L 55.511977 176.809144 
" clip-path="url(#p64cea90ea5)" style="fill: none; stroke: #000000; stroke-opacity: 0.3; stroke-width: 1.5"/>
    <path d="M 102.347387 136.913633 
L 102.347387 135.678874 
" clip-path="url(#p64cea90ea5)" style="fill: none; stroke: #000000; stroke-opacity: 0.3; stroke-width: 1.5"/>
    <path d="M 160.89165 133.677711 
L 160.89165 118.264504 
" clip-path="url(#p64cea90ea5)" style="fill: none; stroke: #000000; stroke-opacity: 0.3; stroke-width: 1.5"/>
    <path d="M 395.068699 130.058588 
L 395.068699 117.285212 
" clip-path="url(#p64cea90ea5)" style="fill: none; stroke: #000000; stroke-opacity: 0.3; stroke-width: 1.5"/>
   </g>
   <g id="line2d_29">
    <defs>
     <path id="mfd0e278c80" d="M 4 0 
L -4 -0 
" style="stroke: #000000; stroke-opacity: 0.3; stroke-width: 2"/>
    </defs>
    <g clip-path="url(#p64cea90ea5)">
     <use xlink:href="#mfd0e278c80" x="43.803125" y="273.312" style="fill-opacity: 0.3; stroke: #000000; stroke-opacity: 0.3; stroke-width: 2"/>
     <use xlink:href="#mfd0e278c80" x="55.511977" y="186.814956" style="fill-opacity: 0.3; stroke: #000000; stroke-opacity: 0.3; stroke-width: 2"/>
     <use xlink:href="#mfd0e278c80" x="102.347387" y="136.913633" style="fill-opacity: 0.3; stroke: #000000; stroke-opacity: 0.3; stroke-width: 2"/>
     <use xlink:href="#mfd0e278c80" x="160.89165" y="133.677711" style="fill-opacity: 0.3; stroke: #000000; stroke-opacity: 0.3; stroke-width: 2"/>
     <use xlink:href="#mfd0e278c80" x="395.068699" y="130.058588" style="fill-opacity: 0.3; stroke: #000000; stroke-opacity: 0.3; stroke-width: 2"/>
    </g>
   </g>
   <g id="line2d_30">
    <g clip-path="url(#p64cea90ea5)">
     <use xlink:href="#mfd0e278c80" x="43.803125" y="273.312" style="fill-opacity: 0.3; stroke: #000000; stroke-opacity: 0.3; stroke-width: 2"/>
     <use xlink:href="#mfd0e278c80" x="55.511977" y="176.809144" style="fill-opacity: 0.3; stroke: #000000; stroke-opacity: 0.3; stroke-width: 2"/>
     <use xlink:href="#mfd0e278c80" x="102.347387" y="135.678874" style="fill-opacity: 0.3; stroke: #000000; stroke-opacity: 0.3; stroke-width: 2"/>
     <use xlink:href="#mfd0e278c80" x="160.89165" y="118.264504" style="fill-opacity: 0.3; stroke: #000000; stroke-opacity: 0.3; stroke-width: 2"/>
     <use xlink:href="#mfd0e278c80" x="395.068699" y="117.285212" style="fill-opacity: 0.3; stroke: #000000; stroke-opacity: 0.3; stroke-width: 2"/>
    </g>
   </g>
   <g id="LineCollection_2">
    <path d="M 43.803125 273.312 
L 43.803125 273.312 
" clip-path="url(#p64cea90ea5)" style="fill: none; stroke: #000000; stroke-opacity: 0.3; stroke-width: 1.5"/>
    <path d="M 55.511977 212.702331 
L 55.511977 144.705393 
" clip-path="url(#p64cea90ea5)" style="fill: none; stroke: #000000; stroke-opacity: 0.3; stroke-width: 1.5"/>
    <path d="M 102.347387 170.060544 
L 102.347387 128.249027 
" clip-path="url(#p64cea90ea5)" style="fill: none; stroke: #000000; stroke-opacity: 0.3; stroke-width: 1.5"/>
    <path d="M 160.89165 122.075228 
L 160.89165 110.451456 
" clip-path="url(#p64cea90ea5)" style="fill: none; stroke: #000000; stroke-opacity: 0.3; stroke-width: 1.5"/>
    <path d="M 395.068699 111.558482 
L 395.068699 97.550346 
" clip-path="url(#p64cea90ea5)" style="fill: none; stroke: #000000; stroke-opacity: 0.3; stroke-width: 1.5"/>
   </g>
   <g id="line2d_31">
    <g clip-path="url(#p64cea90ea5)">
     <use xlink:href="#mfd0e278c80" x="43.803125" y="273.312" style="fill-opacity: 0.3; stroke: #000000; stroke-opacity: 0.3; stroke-width: 2"/>
     <use xlink:href="#mfd0e278c80" x="55.511977" y="212.702331" style="fill-opacity: 0.3; stroke: #000000; stroke-opacity: 0.3; stroke-width: 2"/>
     <use xlink:href="#mfd0e278c80" x="102.347387" y="170.060544" style="fill-opacity: 0.3; stroke: #000000; stroke-opacity: 0.3; stroke-width: 2"/>
     <use xlink:href="#mfd0e278c80" x="160.89165" y="122.075228" style="fill-opacity: 0.3; stroke: #000000; stroke-opacity: 0.3; stroke-width: 2"/>
     <use xlink:href="#mfd0e278c80" x="395.068699" y="111.558482" style="fill-opacity: 0.3; stroke: #000000; stroke-opacity: 0.3; stroke-width: 2"/>
    </g>
   </g>
   <g id="line2d_32">
    <g clip-path="url(#p64cea90ea5)">
     <use xlink:href="#mfd0e278c80" x="43.803125" y="273.312" style="fill-opacity: 0.3; stroke: #000000; stroke-opacity: 0.3; stroke-width: 2"/>
     <use xlink:href="#mfd0e278c80" x="55.511977" y="144.705393" style="fill-opacity: 0.3; stroke: #000000; stroke-opacity: 0.3; stroke-width: 2"/>
     <use xlink:href="#mfd0e278c80" x="102.347387" y="128.249027" style="fill-opacity: 0.3; stroke: #000000; stroke-opacity: 0.3; stroke-width: 2"/>
     <use xlink:href="#mfd0e278c80" x="160.89165" y="110.451456" style="fill-opacity: 0.3; stroke: #000000; stroke-opacity: 0.3; stroke-width: 2"/>
     <use xlink:href="#mfd0e278c80" x="395.068699" y="97.550346" style="fill-opacity: 0.3; stroke: #000000; stroke-opacity: 0.3; stroke-width: 2"/>
    </g>
   </g>
   <g id="LineCollection_3">
    <path d="M 43.803125 273.312 
L 43.803125 273.312 
" clip-path="url(#p64cea90ea5)" style="fill: none; stroke: #000000; stroke-opacity: 0.3; stroke-width: 1.5"/>
    <path d="M 55.511977 230.350879 
L 55.511977 154.264136 
" clip-path="url(#p64cea90ea5)" style="fill: none; stroke: #000000; stroke-opacity: 0.3; stroke-width: 1.5"/>
    <path d="M 102.347387 172.423619 
L 102.347387 110.855946 
" clip-path="url(#p64cea90ea5)" style="fill: none; stroke: #000000; stroke-opacity: 0.3; stroke-width: 1.5"/>
    <path d="M 160.89165 199.843799 
L 160.89165 140.958536 
" clip-path="url(#p64cea90ea5)" style="fill: none; stroke: #000000; stroke-opacity: 0.3; stroke-width: 1.5"/>
    <path d="M 395.068699 170.081833 
L 395.068699 71.897149 
" clip-path="url(#p64cea90ea5)" style="fill: none; stroke: #000000; stroke-opacity: 0.3; stroke-width: 1.5"/>
   </g>
   <g id="line2d_33">
    <g clip-path="url(#p64cea90ea5)">
     <use xlink:href="#mfd0e278c80" x="43.803125" y="273.312" style="fill-opacity: 0.3; stroke: #000000; stroke-opacity: 0.3; stroke-width: 2"/>
     <use xlink:href="#mfd0e278c80" x="55.511977" y="230.350879" style="fill-opacity: 0.3; stroke: #000000; stroke-opacity: 0.3; stroke-width: 2"/>
     <use xlink:href="#mfd0e278c80" x="102.347387" y="172.423619" style="fill-opacity: 0.3; stroke: #000000; stroke-opacity: 0.3; stroke-width: 2"/>
     <use xlink:href="#mfd0e278c80" x="160.89165" y="199.843799" style="fill-opacity: 0.3; stroke: #000000; stroke-opacity: 0.3; stroke-width: 2"/>
     <use xlink:href="#mfd0e278c80" x="395.068699" y="170.081833" style="fill-opacity: 0.3; stroke: #000000; stroke-opacity: 0.3; stroke-width: 2"/>
    </g>
   </g>
   <g id="line2d_34">
    <g clip-path="url(#p64cea90ea5)">
     <use xlink:href="#mfd0e278c80" x="43.803125" y="273.312" style="fill-opacity: 0.3; stroke: #000000; stroke-opacity: 0.3; stroke-width: 2"/>
     <use xlink:href="#mfd0e278c80" x="55.511977" y="154.264136" style="fill-opacity: 0.3; stroke: #000000; stroke-opacity: 0.3; stroke-width: 2"/>
     <use xlink:href="#mfd0e278c80" x="102.347387" y="110.855946" style="fill-opacity: 0.3; stroke: #000000; stroke-opacity: 0.3; stroke-width: 2"/>
     <use xlink:href="#mfd0e278c80" x="160.89165" y="140.958536" style="fill-opacity: 0.3; stroke: #000000; stroke-opacity: 0.3; stroke-width: 2"/>
     <use xlink:href="#mfd0e278c80" x="395.068699" y="71.897149" style="fill-opacity: 0.3; stroke: #000000; stroke-opacity: 0.3; stroke-width: 2"/>
    </g>
   </g>
   <g id="LineCollection_4">
    <path d="M 43.803125 273.312 
L 43.803125 273.312 
" clip-path="url(#p64cea90ea5)" style="fill: none; stroke: #000000; stroke-opacity: 0.3; stroke-width: 1.5"/>
    <path d="M 55.511977 175.829852 
L 55.511977 144.364769 
" clip-path="url(#p64cea90ea5)" style="fill: none; stroke: #000000; stroke-opacity: 0.3; stroke-width: 1.5"/>
    <path d="M 102.347387 183.472589 
L 102.347387 149.239941 
" clip-path="url(#p64cea90ea5)" style="fill: none; stroke: #000000; stroke-opacity: 0.3; stroke-width: 1.5"/>
    <path d="M 160.89165 126.098842 
L 160.89165 109.110252 
" clip-path="url(#p64cea90ea5)" style="fill: none; stroke: #000000; stroke-opacity: 0.3; stroke-width: 1.5"/>
    <path d="M 395.068699 91.54686 
L 395.068699 88.694139 
" clip-path="url(#p64cea90ea5)" style="fill: none; stroke: #000000; stroke-opacity: 0.3; stroke-width: 1.5"/>
   </g>
   <g id="line2d_35">
    <g clip-path="url(#p64cea90ea5)">
     <use xlink:href="#mfd0e278c80" x="43.803125" y="273.312" style="fill-opacity: 0.3; stroke: #000000; stroke-opacity: 0.3; stroke-width: 2"/>
     <use xlink:href="#mfd0e278c80" x="55.511977" y="175.829852" style="fill-opacity: 0.3; stroke: #000000; stroke-opacity: 0.3; stroke-width: 2"/>
     <use xlink:href="#mfd0e278c80" x="102.347387" y="183.472589" style="fill-opacity: 0.3; stroke: #000000; stroke-opacity: 0.3; stroke-width: 2"/>
     <use xlink:href="#mfd0e278c80" x="160.89165" y="126.098842" style="fill-opacity: 0.3; stroke: #000000; stroke-opacity: 0.3; stroke-width: 2"/>
     <use xlink:href="#mfd0e278c80" x="395.068699" y="91.54686" style="fill-opacity: 0.3; stroke: #000000; stroke-opacity: 0.3; stroke-width: 2"/>
    </g>
   </g>
   <g id="line2d_36">
    <g clip-path="url(#p64cea90ea5)">
     <use xlink:href="#mfd0e278c80" x="43.803125" y="273.312" style="fill-opacity: 0.3; stroke: #000000; stroke-opacity: 0.3; stroke-width: 2"/>
     <use xlink:href="#mfd0e278c80" x="55.511977" y="144.364769" style="fill-opacity: 0.3; stroke: #000000; stroke-opacity: 0.3; stroke-width: 2"/>
     <use xlink:href="#mfd0e278c80" x="102.347387" y="149.239941" style="fill-opacity: 0.3; stroke: #000000; stroke-opacity: 0.3; stroke-width: 2"/>
     <use xlink:href="#mfd0e278c80" x="160.89165" y="109.110252" style="fill-opacity: 0.3; stroke: #000000; stroke-opacity: 0.3; stroke-width: 2"/>
     <use xlink:href="#mfd0e278c80" x="395.068699" y="88.694139" style="fill-opacity: 0.3; stroke: #000000; stroke-opacity: 0.3; stroke-width: 2"/>
    </g>
   </g>
   <g id="legend_1">
    <g id="patch_7">
     <path d="M 302.571563 268.312 
L 393.923125 268.312 
Q 395.923125 268.312 395.923125 266.312 
L 395.923125 208.5995 
Q 395.923125 206.5995 393.923125 206.5995 
L 302.571563 206.5995 
Q 300.571563 206.5995 300.571563 208.5995 
L 300.571563 266.312 
Q 300.571563 268.312 302.571563 268.312 
z
" style="fill: #ffffff; opacity: 0.8; stroke: #cccccc; stroke-linejoin: miter"/>
    </g>
    <g id="line2d_37">
     <path d="M 304.571563 214.697937 
L 314.571563 214.697937 
L 324.571563 214.697937 
" style="fill: none; stroke: #008000; stroke-opacity: 0.8; stroke-width: 2; stroke-linecap: square"/>
     <g>
      <use xlink:href="#mcf4866097d" x="314.571563" y="214.697937" style="fill: #008000; fill-opacity: 0.8; stroke: #008000; stroke-opacity: 0.8"/>
     </g>
    </g>
    <g id="text_15">
     <!-- R3 Sheet -->
     <g transform="translate(332.571563 218.197937) scale(0.1 -0.1)">
      <defs>
       <path id="DejaVuSans-52" d="M 2841 2188 
Q 3044 2119 3236 1894 
Q 3428 1669 3622 1275 
L 4263 0 
L 3584 0 
L 2988 1197 
Q 2756 1666 2539 1819 
Q 2322 1972 1947 1972 
L 1259 1972 
L 1259 0 
L 628 0 
L 628 4666 
L 2053 4666 
Q 2853 4666 3247 4331 
Q 3641 3997 3641 3322 
Q 3641 2881 3436 2590 
Q 3231 2300 2841 2188 
z
M 1259 4147 
L 1259 2491 
L 2053 2491 
Q 2509 2491 2742 2702 
Q 2975 2913 2975 3322 
Q 2975 3731 2742 3939 
Q 2509 4147 2053 4147 
L 1259 4147 
z
" transform="scale(0.015625)"/>
       <path id="DejaVuSans-68" d="M 3513 2113 
L 3513 0 
L 2938 0 
L 2938 2094 
Q 2938 2591 2744 2837 
Q 2550 3084 2163 3084 
Q 1697 3084 1428 2787 
Q 1159 2491 1159 1978 
L 1159 0 
L 581 0 
L 581 4863 
L 1159 4863 
L 1159 2956 
Q 1366 3272 1645 3428 
Q 1925 3584 2291 3584 
Q 2894 3584 3203 3211 
Q 3513 2838 3513 2113 
z
" transform="scale(0.015625)"/>
      </defs>
      <use xlink:href="#DejaVuSans-52"/>
      <use xlink:href="#DejaVuSans-33" x="69.482422"/>
      <use xlink:href="#DejaVuSans-20" x="133.105469"/>
      <use xlink:href="#DejaVuSans-53" x="164.892578"/>
      <use xlink:href="#DejaVuSans-68" x="228.369141"/>
      <use xlink:href="#DejaVuSans-65" x="291.748047"/>
      <use xlink:href="#DejaVuSans-65" x="353.271484"/>
      <use xlink:href="#DejaVuSans-74" x="414.794922"/>
     </g>
    </g>
    <g id="line2d_38">
     <path d="M 304.571563 229.376062 
L 314.571563 229.376062 
L 324.571563 229.376062 
" style="fill: none; stroke: #20b2aa; stroke-opacity: 0.8; stroke-width: 2; stroke-linecap: square"/>
     <g>
      <use xlink:href="#m66f2c3a634" x="314.571563" y="229.376062" style="fill: #20b2aa; fill-opacity: 0.8; stroke: #20b2aa; stroke-opacity: 0.8"/>
     </g>
    </g>
    <g id="text_16">
     <!-- R4 Sheet -->
     <g transform="translate(332.571563 232.876062) scale(0.1 -0.1)">
      <use xlink:href="#DejaVuSans-52"/>
      <use xlink:href="#DejaVuSans-34" x="69.482422"/>
      <use xlink:href="#DejaVuSans-20" x="133.105469"/>
      <use xlink:href="#DejaVuSans-53" x="164.892578"/>
      <use xlink:href="#DejaVuSans-68" x="228.369141"/>
      <use xlink:href="#DejaVuSans-65" x="291.748047"/>
      <use xlink:href="#DejaVuSans-65" x="353.271484"/>
      <use xlink:href="#DejaVuSans-74" x="414.794922"/>
     </g>
    </g>
    <g id="line2d_39">
     <path d="M 304.571563 244.054187 
L 314.571563 244.054187 
L 324.571563 244.054187 
" style="fill: none; stroke: #00ff00; stroke-opacity: 0.8; stroke-width: 2; stroke-linecap: square"/>
     <g>
      <use xlink:href="#m6374249669" x="314.571563" y="244.054187" style="fill: #00ff00; fill-opacity: 0.8; stroke: #00ff00; stroke-opacity: 0.8"/>
     </g>
    </g>
    <g id="text_17">
     <!-- R3 Filament -->
     <g transform="translate(332.571563 247.554187) scale(0.1 -0.1)">
      <defs>
       <path id="DejaVuSans-46" d="M 628 4666 
L 3309 4666 
L 3309 4134 
L 1259 4134 
L 1259 2759 
L 3109 2759 
L 3109 2228 
L 1259 2228 
L 1259 0 
L 628 0 
L 628 4666 
z
" transform="scale(0.015625)"/>
      </defs>
      <use xlink:href="#DejaVuSans-52"/>
      <use xlink:href="#DejaVuSans-33" x="69.482422"/>
      <use xlink:href="#DejaVuSans-20" x="133.105469"/>
      <use xlink:href="#DejaVuSans-46" x="164.892578"/>
      <use xlink:href="#DejaVuSans-69" x="215.162109"/>
      <use xlink:href="#DejaVuSans-6c" x="242.945312"/>
      <use xlink:href="#DejaVuSans-61" x="270.728516"/>
      <use xlink:href="#DejaVuSans-6d" x="332.007812"/>
      <use xlink:href="#DejaVuSans-65" x="429.419922"/>
      <use xlink:href="#DejaVuSans-6e" x="490.943359"/>
      <use xlink:href="#DejaVuSans-74" x="554.322266"/>
     </g>
    </g>
    <g id="line2d_40">
     <path d="M 304.571563 258.732312 
L 314.571563 258.732312 
L 324.571563 258.732312 
" style="fill: none; stroke: #00ffff; stroke-opacity: 0.8; stroke-width: 2; stroke-linecap: square"/>
     <g>
      <use xlink:href="#m40ae664c7a" x="314.571563" y="258.732312" style="fill: #00ffff; fill-opacity: 0.8; stroke: #00ffff; stroke-opacity: 0.8"/>
     </g>
    </g>
    <g id="text_18">
     <!-- R4 Filament -->
     <g transform="translate(332.571563 262.232312) scale(0.1 -0.1)">
      <use xlink:href="#DejaVuSans-52"/>
      <use xlink:href="#DejaVuSans-34" x="69.482422"/>
      <use xlink:href="#DejaVuSans-20" x="133.105469"/>
      <use xlink:href="#DejaVuSans-46" x="164.892578"/>
      <use xlink:href="#DejaVuSans-69" x="215.162109"/>
      <use xlink:href="#DejaVuSans-6c" x="242.945312"/>
      <use xlink:href="#DejaVuSans-61" x="270.728516"/>
      <use xlink:href="#DejaVuSans-6d" x="332.007812"/>
      <use xlink:href="#DejaVuSans-65" x="429.419922"/>
      <use xlink:href="#DejaVuSans-6e" x="490.943359"/>
      <use xlink:href="#DejaVuSans-74" x="554.322266"/>
     </g>
    </g>
   </g>
  </g>
 </g>
 <defs>
  <clipPath id="p64cea90ea5">
   <rect x="43.803125" y="7.2" width="357.12" height="266.112"/>
  </clipPath>
 </defs>
</svg>
